# xmcd CD database file
# Copyright 1993-1996 (C) Ti Kan
#
# Track frame offsets:
#    150
#    22015
#    50882
#    73745
#    92890
#    114145
#    139282
#    164837
#    185617
#    204725
#    233997
#    277285
#    294272
#
# Disc length: 4229 seconds
#
# Revision: 1
# Processed by: cddbd v1.4b41PL1 Copyright (c) Steve Scherf et al.
# Submitted via: MyCDplayer 2.1.9  (wjohn@fix.net)
#
DISCID=d510830d
DTITLE=Stevie Ray Vaughan - Live Alive
DYEAR=1900
DGENRE=
TTITLE0=Say What!
TTITLE1=Ain't Gone 'N' Give Up On Love
TTITLE2=Pride And Joy
TTITLE3=Mary Had A Little Lamb
TTITLE4=Superstition
TTITLE5=I'm Leaving You (Commit A Crime)
TTITLE6=Cold Shot
TTITLE7=Willie The Wimp
TTITLE8=Look At Little Sister
TTITLE9=Texas Flood
TTITLE10=Voodoo Chile (Slight Return)
TTITLE11=Love Struck Baby
TTITLE12=Change It
EXTD=1986 Epic Records EGK 40511\n\nRecorded: 16-Jul-85 (Montreux
EXTT0=8-Jul-86 (Austin), 19-Jull-86 (Dallas]\n\nSte
EXTT1=rs, vocals\nTommy Shannon: bass guitar\nChris
EXTT2=ums\nReese Wynans: keyboard\nJimmie Vaughn: (
EXTT3=ng bass\n\nEntry appended: Mike Lempriere  mi
EXTT4=Jan-1997\n
EXTT5=
EXTT6=
EXTT7=
EXTT8=
EXTT9=
EXTT10=
EXTT11=
EXTT12=
PLAYORDER=
